<svg width="25" height="30" viewBox="0 0 116 124" fill="none" xmlns="http://www.w3.org/2000/svg">
<path d="M16 8C15.9997 6.59577 15.6298 5.21635 14.9275 4.00037C14.2252 2.7844 13.2152 1.7747 11.999 1.07276C10.7828 0.370826 9.40326 0.00137723 7.99903 0.00154692C6.5948 0.00171661 5.21536 0.371499 3.99933 1.07373C2.7833 1.77596 1.77353 2.7859 1.07151 4.00205C0.369481 5.2182 -6.78472e-05 6.59771 9.34318e-09 8.00193C6.78659e-05 9.40616 0.36975 10.7856 1.07189 12.0017C1.77404 13.2178 2.7839 14.2276 4 14.9298V124H12V14.9298C13.2166 14.2277 14.2268 13.2176 14.929 12.0011C15.6312 10.7846 16.0006 9.40462 16 8Z" fill="#E6E6E6"/>
<path d="M116 91.5235C81.3333 80.2675 46.6665 104.158 12 92.9015V14.9015C46.6668 26.1578 81.3333 2.2675 116 13.5235V91.5235Z" fill="#2A75E6"/>
<path d="M12 52.9015V92.9015C46.6668 104.158 81.3333 80.2675 116 91.5235V51.5235C81.3333 40.2675 46.6668 64.1577 12 52.9015Z" fill="#F9D549"/>
</svg>
