<svg width="277" height="250" viewBox="0 0 277 204" fill="none" xmlns="http://www.w3.org/2000/svg">
<g clip-path="url(#clip0_28_35)">
<path d="M61.2627 19.0848C59.5396 13.5935 73.4374 8.88471 77.0869 13.3068C77.5944 12.6781 79.4699 12.2962 80.3304 12.4891C81.1726 12.7336 81.9511 13.1216 82.6206 13.6308C83.5914 14.2827 84.5975 14.9577 85.1932 15.8949C85.7934 16.8284 85.8861 18.1012 85.0785 18.9112C84.4387 19.5553 82.55 19.9719 81.588 20.1416C80.9173 20.2612 80.3524 20.3576 79.867 20.427C79.4261 19.8718 79.223 19.1986 79.2933 18.5255C78.9666 18.7181 78.6927 18.9716 78.4913 19.2677C78.2899 19.5638 78.166 19.8951 78.1284 20.238C78.1151 20.3808 83.5517 37.865 83.5517 37.865C82.8985 38.19 82.2114 38.4599 81.4997 38.6712C80.0919 36.7904 79.0135 34.7363 78.3005 32.5769C78.1366 34.0209 78.1573 35.4763 78.3622 36.9162C78.4712 37.7236 78.6274 38.5256 78.83 39.3192C72.3697 40.538 62.6527 40.1369 58.4253 34.9529L58.4231 34.8886C58.4199 34.6839 58.3353 34.4867 58.1839 34.3305C58.0325 34.1744 57.8237 34.0692 57.5933 34.0328C57.3629 33.9965 57.1252 34.0313 56.9209 34.1313C56.7166 34.2313 56.5585 34.3902 56.4736 34.5809C56.371 34.8096 56.2766 35.0076 56.1924 35.1651C54.9613 31.3156 56.5543 26.8607 61.2627 19.0848Z" fill="#2F2E41"/>
<path d="M91.7291 194.725L96.5427 194.69L98.6734 178.083L91.5695 178.135L91.7291 194.725Z" fill="#FFB6B6"/>
<path d="M106.204 199.875L98.5164 195.318L98.4874 192.307L96.8342 192.404L91.7097 192.712L90.4534 192.785L89.5416 203.427L93.1526 203.398L93.768 200.414L95.4434 203.383L105.014 203.313C105.472 203.31 105.918 203.178 106.285 202.938C106.652 202.697 106.922 202.361 107.055 201.977C107.188 201.593 107.177 201.182 107.024 200.804C106.871 200.426 106.584 200.101 106.204 199.875L106.204 199.875Z" fill="#2F2E41"/>
<path d="M43.7326 193.085L48.4916 193.717L53.6084 177.616L46.5845 176.683L43.7326 193.085Z" fill="#FFB6B6"/>
<path d="M57.0902 200.176L50.3266 194.61L50.8442 191.634L49.1943 191.5L44.0787 191.095L42.825 190.993L39.9941 201.373L43.5646 201.845L44.7135 198.984L45.8291 202.147L55.291 203.405C55.7445 203.465 56.2082 203.397 56.6144 203.211C57.0206 203.024 57.348 202.729 57.5489 202.369C57.7498 202.008 57.8136 201.601 57.7311 201.207C57.6486 200.812 57.424 200.451 57.0902 200.176L57.0902 200.176Z" fill="#2F2E41"/>
<path d="M89.5153 78.7041L103.163 100.07C103.163 100.07 102.594 144.011 104.407 145.641C106.221 147.271 107.863 148.733 106.221 148.719C104.579 148.706 102.591 152.199 102.591 152.199L99.1946 185.215H90.6293C90.6293 185.215 84.6024 165.745 85.8871 154.642L75.7403 114.067C75.7403 114.067 68.4506 152.438 67.1368 153.587C65.823 154.735 65.0305 154.727 66.4121 155.879C67.7937 157.032 66.4121 159.638 66.4121 159.638L52.01 185.765L44.1981 184.904C44.1981 184.904 45.5524 163.575 50.2685 154.418V111.146C49.9132 114.856 66.5287 77.3058 56.3681 80.1242C59.5827 79.2325 89.5153 78.7041 89.5153 78.7041Z" fill="#2F2E41"/>
<path d="M51.7477 115.573C52.3051 114.992 52.5812 114.244 52.5172 113.488C52.4531 112.732 52.054 112.027 51.4047 111.524C51.2709 111.424 51.1278 111.333 50.9769 111.253L53.2966 101.302L47.934 98.497L46.4424 112.429C46.1124 113.002 46.0085 113.654 46.147 114.283C46.2855 114.913 46.6585 115.484 47.2078 115.909C47.8445 116.392 48.6746 116.634 49.5154 116.582C50.3563 116.53 51.139 116.188 51.6914 115.632C51.7105 115.612 51.7292 115.593 51.7477 115.573Z" fill="#FFB6B6"/>
<path d="M135.196 93.7864C134.337 93.6796 133.56 93.284 133.029 92.6839C132.499 92.0838 132.258 91.3265 132.356 90.5731C132.379 90.4203 132.417 90.2693 132.468 90.1219L123.136 84.0716L124.983 78.8527L136.741 88.3488C137.424 88.5821 137.999 89.0066 138.377 89.556C138.756 90.1053 138.915 90.7486 138.831 91.3855C138.779 91.7475 138.646 92.097 138.44 92.4141C138.233 92.7312 137.958 93.0097 137.628 93.2336C137.299 93.4575 136.922 93.6225 136.519 93.7192C136.117 93.8158 135.697 93.8423 135.282 93.7969C135.253 93.7938 135.225 93.7903 135.196 93.7864Z" fill="#FFB6B6"/>
<path d="M72.0619 35.21C78.3132 35.21 83.3809 30.7804 83.3809 25.3163C83.3809 19.8522 78.3132 15.4226 72.0619 15.4226C65.8106 15.4226 60.7429 19.8522 60.7429 25.3163C60.7429 30.7804 65.8106 35.21 72.0619 35.21Z" fill="#FFB6B6"/>
<path d="M236.083 193.44L232.119 195.692L220.293 183.402L226.143 180.077L236.083 193.44Z" fill="#FFB6B6"/>
<path d="M238.911 196.974L226.723 203.901L226.623 203.767C225.805 202.667 225.52 201.328 225.831 200.045C226.142 198.762 227.024 197.639 228.282 196.924L228.282 196.924L229.41 194.182L234.662 193.298L235.726 192.693L238.911 196.974Z" fill="#2F2E41"/>
<path d="M168.16 199.342L163.432 199.342L161.184 183.403L168.161 183.403L168.16 199.342Z" fill="#FFB6B6"/>
<path d="M168.326 203.653L153.789 203.652V203.492C153.789 202.18 154.385 200.922 155.446 199.995C156.507 199.067 157.946 198.546 159.447 198.546H159.447L162.103 196.785L167.058 198.546L168.327 198.546L168.326 203.653Z" fill="#2F2E41"/>
<path d="M217.095 100.989L174.701 101.804L170.499 106.395C170.499 106.395 170.862 104.777 170.539 106.555C170.215 108.333 162.036 143.781 163.583 144.97C165.129 146.159 160.651 154.368 160.322 154.868C159.993 155.369 156.449 180.077 160.322 182.109L161.777 190.733H168.547C168.547 190.733 175.329 183.873 173.965 182.629C172.6 181.386 176.503 177.251 176.653 175.033C176.802 172.816 178.227 162.758 177.123 161.145C176.019 159.532 174.526 153.48 177.327 151.134C180.129 148.788 193.194 119.956 193.194 119.956C193.194 119.956 196.991 153.757 196.982 156.411C196.97 159.862 199.564 158.154 199.564 161.184C199.564 161.796 208.007 177.531 213.682 182.449L225.417 190.339L230.833 186.788V181.66C230.833 181.66 225.814 172.144 224.063 170.613C222.312 169.083 215.847 164.398 215.847 162.256C215.847 160.113 212.804 159.367 214.85 156.526C216.897 153.685 216.197 152.461 215.497 151.237C214.796 150.012 216.124 99.8479 216.124 99.8479L217.095 100.989Z" fill="#2F2E41"/>
<path d="M199.417 26.6064C206.492 26.6064 212.228 21.5932 212.228 15.409C212.228 9.2249 206.492 4.21167 199.417 4.21167C192.342 4.21167 186.607 9.2249 186.607 15.409C186.607 21.5932 192.342 26.6064 199.417 26.6064Z" fill="#FFB6B6"/>
<path d="M209.652 105.269L213.258 95.7809L219.746 96.8252L215.525 106.738C215.782 107.319 215.848 107.951 215.716 108.563C215.585 109.175 215.26 109.742 214.78 110.202C214.299 110.661 213.681 110.995 212.996 111.164C212.311 111.334 211.585 111.333 210.9 111.162C210.215 110.99 209.598 110.655 209.119 110.195C208.64 109.734 208.318 109.165 208.188 108.553C208.058 107.941 208.127 107.309 208.385 106.729C208.644 106.149 209.082 105.643 209.652 105.269H209.652Z" fill="#FFB6B6"/>
<path d="M134.865 86.9326L143.701 80.5831L148.555 84.4887L138.94 90.9114C138.803 91.5224 138.474 92.0879 137.989 92.5444C137.505 93.0008 136.884 93.3301 136.198 93.4952C135.511 93.6603 134.785 93.6546 134.101 93.4789C133.418 93.3032 132.804 92.9643 132.329 92.5004C131.854 92.0365 131.536 91.4659 131.412 90.8529C131.288 90.2399 131.361 89.6086 131.625 89.0302C131.888 88.4517 132.331 87.9489 132.903 87.5784C133.476 87.2078 134.155 86.9842 134.865 86.9327V86.9326Z" fill="#FFB6B6"/>
<path d="M184.079 13.4502C185.46 13.8249 186.792 14.0459 187.69 13.0556C188.588 12.0654 188.353 10.9332 189.689 10.4558C190.806 10.1283 192.023 10.1776 193.101 10.5939C193.295 10.657 193.485 10.728 193.67 10.799C193.774 10.7201 193.878 10.6452 193.991 10.5742C194.84 10.0463 195.888 9.82325 196.92 9.95084C196.166 10.2692 195.545 10.7868 195.146 11.4303C195.516 11.592 195.891 11.7537 196.27 11.8918C197.863 12.4615 199.586 12.6989 201.303 12.5853C203.019 12.4716 204.682 12.0099 206.159 11.2369C204.678 14.6455 205.829 15.8606 208 18.9733L208.086 19.1548C207.869 18.3381 210.708 17.3953 210.708 18.5788C210.584 19.7914 210.28 20.9848 209.806 22.1294C212.59 18.4644 214.233 14.176 213.155 10.0613C212.924 9.19731 212.821 8.27023 212.193 7.56799C211.566 6.86972 210.41 6.45941 209.499 6.85393C209.386 5.51595 208.86 4.22975 207.978 3.13206C207.095 2.03438 205.889 1.16623 204.487 0.619922C203.085 0.0736151 201.54 -0.130432 200.016 0.0294691C198.492 0.18937 197.046 0.70724 195.832 1.52803C194.704 2.28943 193.815 3.28756 192.808 4.1752C191.802 5.06285 190.61 5.87159 189.202 6.09252C188.308 6.23061 187.302 6.14776 186.588 6.64091C185.762 7.21296 185.753 8.21896 185.758 9.18551C186.566 9.16535 187.363 9.35627 188.046 9.73386C187.21 9.75225 186.401 10.0007 185.735 10.444C185.723 10.4509 185.71 10.4588 185.699 10.4677C185.456 12.093 185.555 12.4363 184.079 13.4502Z" fill="#2F2E41"/>
<path d="M26.4915 196.452C26.2646 196.461 26.0399 196.409 25.8479 196.303C25.656 196.196 25.5061 196.041 25.4184 195.858C25.3308 195.675 25.3097 195.472 25.358 195.278C25.4063 195.084 25.5217 194.908 25.6885 194.773L25.7644 194.509C25.7544 194.488 25.7444 194.467 25.7343 194.446C25.5056 193.974 25.1225 193.571 24.6331 193.289C24.1436 193.007 23.5696 192.857 22.9832 192.859C22.3968 192.861 21.8241 193.014 21.337 193.3C20.85 193.585 20.4703 193.99 20.2457 194.464C19.348 196.354 18.2051 198.247 17.9237 200.245C17.7998 201.128 17.852 202.023 18.0782 202.891C15.9698 198.871 14.875 194.501 14.8679 190.079C14.8675 188.969 14.938 187.86 15.0792 186.758C15.1959 185.853 15.3578 184.956 15.5649 184.065C16.695 179.229 19.1212 174.696 22.6445 170.839C24.3497 170.026 25.7288 168.775 26.5958 167.256C26.91 166.71 27.1319 166.127 27.2549 165.525C27.0626 165.547 26.5296 162.986 26.6747 162.829C26.4066 162.474 25.9268 162.297 25.634 161.95C24.1779 160.224 22.1718 160.526 21.1245 162.871C18.8873 163.857 18.8656 165.494 20.2383 167.069C21.1117 168.07 21.2317 169.425 21.998 170.497C21.9192 170.586 21.8372 170.671 21.7583 170.759C20.3172 172.379 19.0611 174.119 18.0081 175.952C18.2642 173.898 17.9586 171.82 17.1164 169.888C16.2628 168.089 14.663 166.573 13.2541 165.017C12.8815 164.599 12.3755 164.287 11.8 164.12C11.2246 163.954 10.6055 163.94 10.0211 164.081C9.43664 164.221 8.91311 164.511 8.51663 164.911C8.12016 165.312 7.86856 165.807 7.79361 166.333C7.79073 166.356 7.78791 166.379 7.78516 166.401C7.99442 166.505 8.19926 166.614 8.39968 166.73C8.65147 166.877 8.84656 167.087 8.9594 167.333C9.07225 167.578 9.09759 167.848 9.03209 168.106C8.96659 168.365 8.81331 168.6 8.59234 168.781C8.37137 168.962 8.093 169.08 7.79373 169.121L7.76309 169.125C7.83763 169.784 7.96941 170.437 8.15727 171.079C6.34989 177.189 10.2519 179.414 15.8234 179.514C15.9464 179.569 16.0663 179.624 16.1893 179.676C15.1313 182.297 14.4677 185.027 14.2152 187.797C14.0722 189.431 14.0806 191.073 14.2404 192.706L14.2309 192.648C13.8272 190.832 12.719 189.193 11.0932 188.009C8.67851 186.275 5.26703 185.637 2.66202 184.243C2.38517 184.088 2.06327 184.005 1.73427 184.004C1.40527 184.003 1.08291 184.085 0.805192 184.239C0.527477 184.393 0.305989 184.614 0.166873 184.874C0.0277566 185.135 -0.0231878 185.425 0.0200326 185.71L0.0306862 185.771C0.419015 185.909 0.797107 186.068 1.16278 186.248C1.37204 186.351 1.57688 186.46 1.7773 186.576C2.02908 186.723 2.22418 186.933 2.33702 187.179C2.44987 187.425 2.47521 187.694 2.40971 187.953C2.34421 188.211 2.19093 188.446 1.96996 188.627C1.74899 188.808 1.47064 188.927 1.17136 188.967L1.14068 188.971C1.11861 188.974 1.09968 188.976 1.07765 188.979C1.74116 190.364 2.67241 191.639 3.83064 192.747C4.96074 198.081 9.81458 198.587 15.0067 197.033H15.0099C15.5795 199.197 16.4049 201.303 17.4728 203.318H26.271C26.3026 203.233 26.331 203.144 26.3594 203.059C25.545 203.104 24.7274 203.061 23.9248 202.932C24.5776 202.232 25.2304 201.526 25.8832 200.826C25.8977 200.813 25.9114 200.799 25.9242 200.785C26.2553 200.427 26.5896 200.071 26.9207 199.713L26.9209 199.712C26.9385 198.614 26.7943 197.518 26.4918 196.452L26.4915 196.452Z" fill="#F2F2F2"/>
<path d="M0.3259 203.492C0.325672 203.559 0.340541 203.625 0.369661 203.687C0.398781 203.748 0.441581 203.805 0.495582 203.852C0.549582 203.899 0.613723 203.936 0.684321 203.962C0.754919 203.987 0.830577 204 0.906943 204H276.419C276.573 204 276.721 203.946 276.83 203.851C276.939 203.756 277 203.627 277 203.492C277 203.357 276.939 203.228 276.83 203.133C276.721 203.038 276.573 202.984 276.419 202.984H0.906943C0.830578 202.984 0.754918 202.997 0.684321 203.023C0.613724 203.048 0.549582 203.085 0.495582 203.133C0.441582 203.18 0.398797 203.236 0.369676 203.298C0.340555 203.359 0.325675 203.425 0.3259 203.492Z" fill="#CCCCCC"/>
<path d="M45.864 106.07L52.7312 106.368L56.5423 92.3942C65.3044 90.6722 67.3827 85.9631 70.5328 86.7737C84.5072 90.3696 101.115 89.9884 95.4639 85.0486C93.1467 83.0232 91.9926 76.2999 91.4367 69.072H48.7808L45.864 106.07Z" fill="#FED701"/>
<path d="M96.9348 69.0721L127.429 87.5109L132.311 83.2791L115.562 69.0721H96.9348Z" fill="#FED701"/>
<path d="M101.813 57.4091L91.0694 47.3905C91.073 47.2856 91.0753 47.2258 91.0753 47.2258L90.7478 47.0905L87.6225 44.1763C86.7332 43.3415 85.6604 42.6721 84.4681 42.2082C83.2759 41.7443 81.9888 41.4955 80.684 41.4766C80.3134 41.4716 79.9428 41.4847 79.574 41.5158L77.9153 37.9641L64.0414 35.3917L61.2867 40.2384L55.9077 42.9604C54.6633 43.3243 53.5162 43.9048 52.5354 44.6669L52.01 44.9328L52.049 45.0723C50.2895 46.6183 49.2803 48.698 49.2317 50.8783L48.7855 69.0115L48.7808 69.072H91.4366C91.3624 68.1073 91.2985 67.134 91.2443 66.1613C93.1736 67.0252 95.0472 67.981 96.8566 69.0246L96.935 69.072H115.562L101.813 57.4091Z" fill="#015ABB"/>
<path d="M144.026 77.622C145.135 79.5374 143.577 78.2451 141.835 78.5912C140.092 78.9373 140.937 79.8373 140.976 81.1642C141.016 82.4911 135.023 85.2832 135.023 85.2832C138.679 86.4256 143.26 91.1218 143.26 91.1218C143.26 91.1218 147.695 87.0374 148.501 86.6105C149.306 86.1836 149.755 85.5605 152.302 84.7875C154.85 84.0145 153.781 83.426 153.966 81.7876C154.151 80.1492 154.771 81.3607 158.348 79.8493C161.926 78.3379 159.022 78.9147 160.012 76.8494C161.002 74.784 160.685 75.9148 163.906 74.2072C165.842 73.1808 167.765 71.6735 170.441 69.072H150.026C146.261 73.6184 143.697 77.0533 144.026 77.622Z" fill="#FED701"/>
<path d="M230.26 64.7767C230.975 59.5656 230.07 54.0004 229.151 50.1527C228.852 48.9037 228.262 47.722 227.417 46.6816C226.572 45.6412 225.49 44.7646 224.24 44.1065C224.146 43.6886 223.981 43.4213 223.726 43.3421C220.085 42.2107 209.92 36.9837 209.92 36.9837L209.068 31.0067L190.674 30.2342L185.967 36.9837C185.967 36.9837 173.775 38.0549 174.001 41.9562C171.048 45.1754 157.904 59.5596 150.026 69.072H170.441C172.217 67.3454 174.324 65.1377 176.988 62.2654C177.006 62.2459 177.023 62.2256 177.041 62.2061C177.22 64.5344 177.358 66.8636 177.44 69.072H229.641C229.839 67.777 230.043 66.3542 230.26 64.7767Z" fill="#015ABB"/>
<path d="M229.641 69.072H177.44C177.673 75.3468 177.451 80.6378 176.406 82.0949C174.94 84.14 172.457 90.984 170.439 96.9931C170.048 98.1584 169.979 99.3881 170.238 100.581C170.496 101.774 171.074 102.897 171.925 103.857C172.776 104.817 173.876 105.587 175.133 106.103C176.39 106.62 177.77 106.868 179.158 106.828C191.678 106.468 209.998 105.633 213.569 103.801C215.511 104.044 217.43 104.413 219.309 104.904C219.309 104.904 220.573 99.3821 220.994 98.6458C221.415 97.9095 221.415 97.1732 223.1 95.3325C224.784 93.4918 223.521 93.4918 222.679 92.0192C221.836 90.5467 223.1 91.2829 225.206 88.3378C227.312 85.3927 225.206 87.2334 224.784 85.0245C224.363 82.8156 224.784 83.9201 226.469 80.975C227.865 78.5346 228.683 75.3327 229.641 69.072Z" fill="#FED701"/>
<path d="M55.0848 19.8562C53.3617 14.365 67.2595 9.65612 70.909 14.0782C71.4165 13.4495 73.292 13.0676 74.1525 13.2605C74.9947 13.505 75.7732 13.893 76.4427 14.4022C77.4135 15.0541 78.4196 15.7291 79.0153 16.6663C79.6155 17.5998 79.7082 18.8726 78.9006 19.6826C78.2607 20.3267 76.3721 20.7433 75.4101 20.913C74.7394 21.0326 74.1745 21.129 73.6891 21.1984C73.2482 20.6432 73.0451 19.97 73.1154 19.2969C72.7887 19.4895 72.5148 19.743 72.3134 20.0391C72.112 20.3352 71.9881 20.6666 71.9505 21.0095C71.9372 21.1522 77.3738 38.6365 77.3738 38.6365C76.7206 38.9614 76.0335 39.2313 75.3218 39.4426C73.9139 37.5618 72.8356 35.5077 72.1225 33.3483C71.9586 34.7923 71.9794 36.2477 72.1843 37.6876C72.2933 38.495 72.4494 39.2971 72.6521 40.0906C66.1917 41.3094 56.4748 40.9083 52.2474 35.7243L52.2452 35.66C52.242 35.4553 52.1574 35.2581 52.006 35.102C51.8546 34.9459 51.6458 34.8406 51.4154 34.8042C51.185 34.7679 50.9473 34.8027 50.743 34.9027C50.5387 35.0027 50.3806 35.1616 50.2957 35.3523C50.1931 35.581 50.0987 35.779 50.0145 35.9365C48.7834 32.0871 50.3764 27.6321 55.0848 19.8562Z" fill="#2F2E41"/>
<path d="M135.215 51.2616C135.199 51.2756 135.184 51.2904 135.167 51.3045C133.944 50.2435 132.293 49.6445 130.57 49.6363C128.847 49.6281 127.188 50.2114 125.952 51.2608C124.712 52.314 123.996 53.7518 123.959 55.263C123.922 56.7742 124.568 58.2372 125.756 59.3354L125.755 59.3368L125.816 59.3922L134.922 67.5868L144.36 59.5741L144.334 59.5505C144.35 59.5373 144.367 59.5251 144.382 59.5117C145.634 58.4491 146.351 56.9955 146.377 55.4706C146.402 53.9457 145.734 52.4744 144.518 51.3803C143.302 50.2863 141.639 49.6592 139.895 49.6369C138.15 49.6147 136.467 50.1991 135.215 51.2616Z" fill="#FC8585"/>
</g>
<defs>
<clipPath id="clip0_28_35">
<rect width="277" height="204" fill="white"/>
</clipPath>
</defs>
</svg>
