<svg width="24" height="24" viewBox="0 0 24 24" fill="none" xmlns="http://www.w3.org/2000/svg">
<path d="M5 7H19V20C19 21.1046 18.1046 22 17 22H7C5.89543 22 5 21.1046 5 20V7Z" stroke="#555555" stroke-width="1.5"/>
<path d="M10 11V17" stroke="#555555" stroke-width="1.5" stroke-linecap="round"/>
<path d="M14 11V17" stroke="#555555" stroke-width="1.5" stroke-linecap="round"/>
<path d="M9 3C9 2.44772 9.44772 2 10 2H14C14.5523 2 15 2.44772 15 3V4H9V3Z" stroke="#555555" stroke-width="1.5"/>
<path d="M3 5.5C3 4.67157 3.67157 4 4.5 4H19.5C20.3284 4 21 4.67157 21 5.5V5.5C21 6.32843 20.3284 7 19.5 7H4.5C3.67157 7 3 6.32843 3 5.5V5.5Z" stroke="#555555" stroke-width="1.5"/>
</svg>
