<svg width="15" height="15" viewBox="0 0 15 15" fill="none" xmlns="http://www.w3.org/2000/svg">
<path fill-rule="evenodd" clip-rule="evenodd" d="M7.63173 0.206756C7.54385 -0.0689188 7.15378 -0.0689188 7.06591 0.206756L6.90049 0.725713C6.82224 0.971209 6.48987 1.00736 6.36067 0.784422L6.08756 0.313158C5.94248 0.0628178 5.56152 0.146672 5.53497 0.434792L5.48498 0.977176C5.46133 1.23375 5.1445 1.34051 4.9704 1.15056L4.60236 0.749023C4.40686 0.535723 4.05284 0.699512 4.08884 0.986604L4.15662 1.52705C4.18868 1.78272 3.9022 1.95508 3.69134 1.807L3.24559 1.49397C3.00881 1.32768 2.69827 1.56375 2.79515 1.83639L2.97752 2.34963C3.06379 2.59243 2.82107 2.82235 2.5833 2.72306L2.08068 2.51317C1.81369 2.40167 1.56116 2.69897 1.71438 2.94441L2.00282 3.40645C2.13927 3.62502 1.95164 3.90175 1.69809 3.85589L1.1621 3.75896C0.877383 3.70746 0.694668 4.0521 0.89707 4.25886L1.27809 4.6481C1.45834 4.83223 1.33459 5.14281 1.07711 5.15253L0.532811 5.17309C0.243676 5.184 0.139319 5.55986 0.381438 5.71828L0.837225 6.01651C1.05284 6.15758 0.998749 6.48751 0.749377 6.55236L0.222225 6.68944C-0.0578029 6.76225 -0.0789212 7.15176 0.191592 7.25443L0.700833 7.4477C0.941732 7.53912 0.959832 7.87296 0.73023 7.9899L0.244872 8.2371C-0.0129558 8.36841 0.0501512 8.75335 0.336411 8.79546L0.875293 8.87475C1.13021 8.91225 1.21966 9.2344 1.02056 9.39796L0.599691 9.74371C0.37612 9.92738 0.520502 10.2898 0.809122 10.2693L1.35245 10.2309C1.60947 10.2128 1.76607 10.5081 1.60679 10.7107L1.27009 11.1388C1.09123 11.3663 1.31014 11.6891 1.58762 11.6071L2.10999 11.4528C2.35709 11.3798 2.57354 11.6346 2.46152 11.8667L2.22473 12.3572C2.09894 12.6178 2.38213 12.886 2.63551 12.7463L3.11249 12.4833C3.33813 12.3589 3.60428 12.5612 3.54477 12.8119L3.41896 13.3419C3.35213 13.6234 3.68636 13.8245 3.90378 13.6336L4.31307 13.2742C4.50669 13.1042 4.81012 13.2446 4.80589 13.5022L4.79694 14.0468C4.79219 14.3361 5.16185 14.4607 5.33314 14.2275L5.65561 13.7885C5.80815 13.5808 6.13466 13.6527 6.18591 13.9052L6.29425 14.439C6.35181 14.7226 6.73959 14.7648 6.85676 14.5002L7.07731 14.0022C7.18165 13.7666 7.51598 13.7666 7.62032 14.0022L7.84087 14.5002C7.95804 14.7648 8.34583 14.7226 8.40338 14.439L8.51172 13.9052C8.56297 13.6527 8.88948 13.5808 9.04202 13.7885L9.36449 14.2275C9.53578 14.4607 9.90544 14.3361 9.90069 14.0468L9.89174 13.5022C9.88751 13.2446 10.1909 13.1042 10.3846 13.2742L10.7938 13.6336C11.0113 13.8245 11.3455 13.6234 11.2787 13.3419L11.1529 12.8119C11.0933 12.5612 11.3595 12.3589 11.5851 12.4833L12.0621 12.7463C12.3155 12.886 12.5987 12.6178 12.4729 12.3572L12.2361 11.8667C12.1241 11.6346 12.3405 11.3798 12.5876 11.4528L13.11 11.6071C13.3875 11.6891 13.6064 11.3663 13.4275 11.1388L13.0908 10.7107C12.9316 10.5081 13.0882 10.2128 13.3452 10.2309L13.8885 10.2693C14.1771 10.2898 14.3215 9.92738 14.0979 9.74371L13.6771 9.39796C13.478 9.2344 13.5674 8.91225 13.8223 8.87475L14.3612 8.79546C14.6475 8.75335 14.7106 8.36841 14.4528 8.2371L13.9674 7.9899C13.7378 7.87296 13.7559 7.53912 13.9968 7.4477L14.506 7.25443C14.7766 7.15176 14.7554 6.76225 14.4754 6.68944L13.9483 6.55236C13.6989 6.48751 13.6448 6.15758 13.8604 6.01651L14.3162 5.71828C14.5583 5.55986 14.454 5.184 14.1648 5.17309L13.6205 5.15253C13.363 5.14281 13.2393 4.83223 13.4195 4.6481L13.8006 4.25886C14.003 4.0521 13.8202 3.70746 13.5355 3.75896L12.9995 3.85589C12.746 3.90175 12.5584 3.62502 12.6948 3.40645L12.9833 2.94441C13.1365 2.69897 12.8839 2.40167 12.617 2.51317L12.1143 2.72306C11.8766 2.82235 11.6338 2.59243 11.7201 2.34963L11.9025 1.83639C11.9994 1.56375 11.6888 1.32768 11.452 1.49397L11.0063 1.807C10.7954 1.95508 10.509 1.78272 10.541 1.52705L10.6088 0.986604C10.6448 0.699512 10.2908 0.535723 10.0953 0.749023L9.72723 1.15056C9.55313 1.34051 9.2363 1.23375 9.21266 0.977176L9.16267 0.434792C9.13611 0.146673 8.75515 0.0628178 8.61007 0.313158L8.33696 0.784422C8.20777 1.00736 7.8754 0.971209 7.79714 0.725713L7.63173 0.206756ZM7.34749 12.9813C10.3856 12.9813 12.8485 10.5184 12.8485 7.48026C12.8485 4.44213 10.3856 1.97924 7.34749 1.97924C4.30936 1.97924 1.84647 4.44213 1.84647 7.48026C1.84647 10.5184 4.30936 12.9813 7.34749 12.9813Z" fill="#4CAF50"/>
<circle cx="7.30652" cy="7.30615" r="4.5" fill="#4CAF50"/>
<path d="M5 7.5L5.7938 8.823C6.14277 9.40461 6.95722 9.47746 7.40387 8.96701L10 6" stroke="white" stroke-linecap="round"/>
</svg>
