<svg width="16" height="16" viewBox="0 0 16 16" fill="none" xmlns="http://www.w3.org/2000/svg">
<path fill-rule="evenodd" clip-rule="evenodd" d="M8.64289 0.999791C8.64289 0.644751 8.35507 0.356934 8.00003 0.356934C7.64499 0.356934 7.35717 0.644751 7.35717 0.999791V7.35679H1.00007C0.645025 7.35679 0.357208 7.64461 0.357208 7.99965C0.357208 8.35469 0.645025 8.64251 1.00007 8.64251H7.35717V14.9998C7.35717 15.3548 7.64499 15.6426 8.00003 15.6426C8.35507 15.6426 8.64289 15.3548 8.64289 14.9998V8.64251H15.0001C15.3551 8.64251 15.6429 8.35469 15.6429 7.99965C15.6429 7.64461 15.3551 7.35679 15.0001 7.35679H8.64289V0.999791Z" fill="black"/>
</svg>
