<svg width="24" height="24" viewBox="0 0 24 24" fill="none" xmlns="http://www.w3.org/2000/svg">
<path fill-rule="evenodd" clip-rule="evenodd" d="M15.9904 7.82283C16.0615 7.75449 16.1452 7.70083 16.237 7.6649C16.3288 7.62897 16.4268 7.61148 16.5253 7.61343C16.6238 7.61538 16.721 7.63673 16.8113 7.67626C16.9016 7.7158 16.9832 7.77274 17.0514 7.84383L20.5414 11.4808C20.6753 11.6205 20.75 11.8064 20.75 11.9998C20.75 12.1933 20.6753 12.3792 20.5414 12.5188L17.0514 16.1558C16.9832 16.2269 16.9017 16.2838 16.8115 16.3233C16.7212 16.3628 16.6241 16.3842 16.5256 16.3862C16.4272 16.3882 16.3293 16.3708 16.2375 16.335C16.1458 16.2991 16.062 16.2456 15.9909 16.1773C15.9199 16.1091 15.863 16.0276 15.8235 15.9373C15.7839 15.8471 15.7625 15.75 15.7606 15.6515C15.7586 15.5531 15.776 15.4551 15.8118 15.3634C15.8477 15.2717 15.9012 15.1879 15.9694 15.1168L18.2404 12.7498H11.2734C11.0745 12.7498 10.8838 12.6708 10.7431 12.5302C10.6025 12.3895 10.5234 12.1987 10.5234 11.9998C10.5234 11.8009 10.6025 11.6102 10.7431 11.4695C10.8838 11.3288 11.0745 11.2498 11.2734 11.2498H18.2414L15.9694 8.88283C15.8319 8.73931 15.7569 8.54704 15.761 8.34827C15.7652 8.14951 15.848 7.96052 15.9914 7.82283" fill="black" fill-opacity="0.58"/>
<path fill-rule="evenodd" clip-rule="evenodd" d="M3.25 4C3.25 3.80109 3.32902 3.61032 3.46967 3.46967C3.61032 3.32902 3.80109 3.25 4 3.25H13.455C13.6539 3.25 13.8447 3.32902 13.9853 3.46967C14.126 3.61032 14.205 3.80109 14.205 4V7C14.205 7.19891 14.126 7.38968 13.9853 7.53033C13.8447 7.67098 13.6539 7.75 13.455 7.75C13.2561 7.75 13.0653 7.67098 12.9247 7.53033C12.784 7.38968 12.705 7.19891 12.705 7V4.75H4.75V19.25H12.704V17C12.704 16.8011 12.783 16.6103 12.9237 16.4697C13.0643 16.329 13.2551 16.25 13.454 16.25C13.6529 16.25 13.8437 16.329 13.9843 16.4697C14.125 16.6103 14.204 16.8011 14.204 17V20C14.204 20.1989 14.125 20.3897 13.9843 20.5303C13.8437 20.671 13.6529 20.75 13.454 20.75H4C3.80109 20.75 3.61032 20.671 3.46967 20.5303C3.32902 20.3897 3.25 20.1989 3.25 20V4Z" fill="black" fill-opacity="0.58"/>
</svg>
