<svg width="17" height="16" viewBox="0 0 17 16" fill="none" xmlns="http://www.w3.org/2000/svg">
<g clip-path="url(#clip0_312_4854)">
<path d="M3.02917 3.5C2.89657 3.5 2.76939 3.44732 2.67562 3.35355C2.58185 3.25979 2.52917 3.13261 2.52917 3C2.52917 2.86739 2.58185 2.74021 2.67562 2.64645C2.76939 2.55268 2.89657 2.5 3.02917 2.5H14.0292C14.1618 2.5 14.289 2.55268 14.3827 2.64645C14.4765 2.74021 14.5292 2.86739 14.5292 3C14.5292 3.13261 14.4765 3.25979 14.3827 3.35355C14.289 3.44732 14.1618 3.5 14.0292 3.5H3.02917ZM5.02917 1.5C4.89657 1.5 4.76939 1.44732 4.67562 1.35355C4.58185 1.25979 4.52917 1.13261 4.52917 1C4.52917 0.867392 4.58185 0.740215 4.67562 0.646447C4.76939 0.552678 4.89657 0.5 5.02917 0.5H12.0292C12.1618 0.5 12.289 0.552678 12.3827 0.646447C12.4765 0.740215 12.5292 0.867392 12.5292 1C12.5292 1.13261 12.4765 1.25979 12.3827 1.35355C12.289 1.44732 12.1618 1.5 12.0292 1.5H5.02917ZM0.529175 13C0.529175 13.3978 0.68721 13.7794 0.968515 14.0607C1.24982 14.342 1.63135 14.5 2.02917 14.5H15.0292C15.427 14.5 15.8085 14.342 16.0898 14.0607C16.3711 13.7794 16.5292 13.3978 16.5292 13V6C16.5292 5.60218 16.3711 5.22064 16.0898 4.93934C15.8085 4.65804 15.427 4.5 15.0292 4.5H2.02917C1.63135 4.5 1.24982 4.65804 0.968515 4.93934C0.68721 5.22064 0.529175 5.60218 0.529175 6L0.529175 13ZM2.02917 13.5C1.89657 13.5 1.76939 13.4473 1.67562 13.3536C1.58185 13.2598 1.52917 13.1326 1.52917 13V6C1.52917 5.86739 1.58185 5.74021 1.67562 5.64645C1.76939 5.55268 1.89657 5.5 2.02917 5.5H15.0292C15.1618 5.5 15.289 5.55268 15.3827 5.64645C15.4765 5.74021 15.5292 5.86739 15.5292 6V13C15.5292 13.1326 15.4765 13.2598 15.3827 13.3536C15.289 13.4473 15.1618 13.5 15.0292 13.5H2.02917Z" fill="#060606"/>
</g>
<defs>
<clipPath id="clip0_312_4854">
<rect width="16" height="16" fill="white" transform="translate(0.529175)"/>
</clipPath>
</defs>
</svg>
