<svg width="17" height="18" viewBox="0 0 17 18" fill="none" xmlns="http://www.w3.org/2000/svg">
<path d="M14.3408 5.18201L9.36358 1.60043C8.86513 1.24175 8.19322 1.24175 7.69477 1.60043L2.7175 5.18201C1.97141 5.7189 1.52917 6.58195 1.52917 7.50114V13.9481C1.52917 15.526 2.80836 16.8052 4.38632 16.8052H5.1006C5.88958 16.8052 6.52917 16.1656 6.52917 15.3766V14.2825C6.52917 13.4935 7.16877 12.8539 7.95775 12.8539H9.1006C9.88958 12.8539 10.5292 13.4935 10.5292 14.2825V15.3766C10.5292 16.1656 11.1688 16.8052 11.9577 16.8052H12.672C14.25 16.8052 15.5292 15.526 15.5292 13.9481V7.50113C15.5292 6.58195 15.0869 5.7189 14.3408 5.18201Z" stroke="black" stroke-width="1.5" stroke-linecap="round"/>
</svg>
