<svg width="18" height="18" viewBox="0 0 18 18" fill="none" xmlns="http://www.w3.org/2000/svg">
<path fill-rule="evenodd" clip-rule="evenodd" d="M12.2825 13.1769C12.2115 13.2453 12.1277 13.2989 12.0359 13.3349C11.9442 13.3708 11.8462 13.3883 11.7477 13.3863C11.6491 13.3844 11.5519 13.363 11.4617 13.3235C11.3714 13.284 11.2898 13.227 11.2215 13.1559L7.73151 9.51893C7.59766 9.3793 7.52293 9.19335 7.52293 8.99993C7.52293 8.8065 7.59766 8.62056 7.73151 8.48093L11.2215 4.84393C11.2897 4.77288 11.3713 4.71597 11.4615 4.67644C11.5517 4.63691 11.6488 4.61554 11.7473 4.61354C11.8458 4.61154 11.9437 4.62896 12.0354 4.6648C12.1272 4.70064 12.211 4.7542 12.282 4.82243C12.3531 4.89065 12.41 4.97219 12.4495 5.06241C12.489 5.15263 12.5104 5.24975 12.5124 5.34822C12.5144 5.4467 12.497 5.54461 12.4611 5.63635C12.4253 5.7281 12.3717 5.81188 12.3035 5.88293L10.0325 8.24993H16.9995C17.1984 8.24993 17.3892 8.32895 17.5298 8.4696C17.6705 8.61025 17.7495 8.80101 17.7495 8.99993C17.7495 9.19884 17.6705 9.3896 17.5298 9.53026C17.3892 9.67091 17.1984 9.74993 16.9995 9.74993H10.0315L12.3035 12.1169C12.4411 12.2604 12.516 12.4527 12.5119 12.6515C12.5078 12.8502 12.4249 13.0392 12.2815 13.1769" fill="black" fill-opacity="0.58"/>
<path fill-rule="evenodd" clip-rule="evenodd" d="M0.25 1C0.25 0.801088 0.329018 0.610322 0.46967 0.46967C0.610322 0.329018 0.801088 0.25 1 0.25H10.455C10.6539 0.25 10.8447 0.329018 10.9853 0.46967C11.126 0.610322 11.205 0.801088 11.205 1V4C11.205 4.19891 11.126 4.38968 10.9853 4.53033C10.8447 4.67098 10.6539 4.75 10.455 4.75C10.2561 4.75 10.0653 4.67098 9.92467 4.53033C9.78402 4.38968 9.705 4.19891 9.705 4V1.75H1.75V16.25H9.704V14C9.704 13.8011 9.78302 13.6103 9.92367 13.4697C10.0643 13.329 10.2551 13.25 10.454 13.25C10.6529 13.25 10.8437 13.329 10.9843 13.4697C11.125 13.6103 11.204 13.8011 11.204 14V17C11.204 17.1989 11.125 17.3897 10.9843 17.5303C10.8437 17.671 10.6529 17.75 10.454 17.75H1C0.801088 17.75 0.610322 17.671 0.46967 17.5303C0.329018 17.3897 0.25 17.1989 0.25 17V1Z" fill="black" fill-opacity="0.58"/>
</svg>
