<svg width="218" height="29" viewBox="0 0 218 29" fill="none" xmlns="http://www.w3.org/2000/svg">
<path d="M47.32 21.28C46.2133 21.28 45.1867 21.1067 44.24 20.76C43.3067 20.4 42.4933 19.8933 41.8 19.24C41.12 18.5867 40.5867 17.82 40.2 16.94C39.8133 16.0467 39.62 15.0667 39.62 14C39.62 12.9333 39.8133 11.96 40.2 11.08C40.5867 10.1867 41.12 9.41333 41.8 8.76C42.4933 8.10667 43.3067 7.60667 44.24 7.26C45.1867 6.9 46.2133 6.72 47.32 6.72C48.6133 6.72 49.7667 6.94667 50.78 7.4C51.8067 7.85333 52.66 8.50667 53.34 9.36L50.82 11.64C50.3667 11.1067 49.8667 10.7 49.32 10.42C48.7867 10.14 48.1867 10 47.52 10C46.9467 10 46.42 10.0933 45.94 10.28C45.46 10.4667 45.0467 10.74 44.7 11.1C44.3667 11.4467 44.1 11.8667 43.9 12.36C43.7133 12.8533 43.62 13.4 43.62 14C43.62 14.6 43.7133 15.1467 43.9 15.64C44.1 16.1333 44.3667 16.56 44.7 16.92C45.0467 17.2667 45.46 17.5333 45.94 17.72C46.42 17.9067 46.9467 18 47.52 18C48.1867 18 48.7867 17.86 49.32 17.58C49.8667 17.3 50.3667 16.8933 50.82 16.36L53.34 18.64C52.66 19.48 51.8067 20.1333 50.78 20.6C49.7667 21.0533 48.6133 21.28 47.32 21.28ZM59.6973 21.18C58.5107 21.18 57.4573 20.94 56.5373 20.46C55.6173 19.98 54.8907 19.32 54.3573 18.48C53.8373 17.6267 53.5773 16.6533 53.5773 15.56C53.5773 14.4667 53.8373 13.5 54.3573 12.66C54.8907 11.82 55.6173 11.1667 56.5373 10.7C57.4573 10.22 58.5107 9.98 59.6973 9.98C60.884 9.98 61.9373 10.22 62.8573 10.7C63.7907 11.1667 64.5173 11.82 65.0373 12.66C65.5573 13.5 65.8173 14.4667 65.8173 15.56C65.8173 16.6533 65.5573 17.6267 65.0373 18.48C64.5173 19.32 63.7907 19.98 62.8573 20.46C61.9373 20.94 60.884 21.18 59.6973 21.18ZM59.6973 18.16C60.1373 18.16 60.524 18.06 60.8573 17.86C61.204 17.66 61.4773 17.3667 61.6773 16.98C61.8773 16.58 61.9773 16.1067 61.9773 15.56C61.9773 15.0133 61.8773 14.5533 61.6773 14.18C61.4773 13.7933 61.204 13.5 60.8573 13.3C60.524 13.1 60.1373 13 59.6973 13C59.2707 13 58.884 13.1 58.5373 13.3C58.204 13.5 57.9307 13.7933 57.7173 14.18C57.5173 14.5533 57.4173 15.0133 57.4173 15.56C57.4173 16.1067 57.5173 16.58 57.7173 16.98C57.9307 17.3667 58.204 17.66 58.5373 17.86C58.884 18.06 59.2707 18.16 59.6973 18.16ZM66.1042 21L66.2642 17.9C66.3576 17.9133 66.4442 17.9267 66.5242 17.94C66.6042 17.94 66.6776 17.94 66.7442 17.94C67.0776 17.94 67.3376 17.86 67.5242 17.7C67.7242 17.5267 67.8709 17.2933 67.9642 17C68.0709 16.7067 68.1442 16.3667 68.1842 15.98C68.2376 15.58 68.2709 15.1467 68.2842 14.68L68.4442 10.16H78.2442V21H74.4442V12.32L75.2842 13.18H70.9442L71.7442 12.28L71.6242 14.84C71.5842 15.8133 71.4976 16.7 71.3642 17.5C71.2442 18.2867 71.0509 18.96 70.7842 19.52C70.5176 20.08 70.1509 20.5133 69.6842 20.82C69.2309 21.1133 68.6509 21.26 67.9442 21.26C67.6909 21.26 67.4042 21.2333 67.0842 21.18C66.7776 21.14 66.4509 21.08 66.1042 21ZM80.598 21V10.16H84.398V21H80.598ZM82.498 8.96C81.8046 8.96 81.2446 8.76667 80.818 8.38C80.3913 7.99333 80.178 7.51333 80.178 6.94C80.178 6.36667 80.3913 5.88667 80.818 5.5C81.2446 5.11333 81.8046 4.92 82.498 4.92C83.1913 4.92 83.7513 5.10667 84.178 5.48C84.6046 5.84 84.818 6.30667 84.818 6.88C84.818 7.48 84.6046 7.98 84.178 8.38C83.7646 8.76667 83.2046 8.96 82.498 8.96ZM94.2852 19.34V13.18H91.3852L91.3452 14.22C91.3185 14.74 91.2852 15.2333 91.2452 15.7C91.2185 16.1533 91.1518 16.5667 91.0452 16.94C90.9385 17.3133 90.7852 17.6333 90.5852 17.9C90.3852 18.1533 90.1185 18.34 89.7852 18.46L86.0652 17.96C86.4252 17.96 86.7185 17.86 86.9452 17.66C87.1852 17.4467 87.3718 17.1533 87.5052 16.78C87.6385 16.4067 87.7318 15.98 87.7852 15.5C87.8518 15.0067 87.8985 14.4867 87.9252 13.94L88.0652 10.16H98.0852V19.34H94.2852ZM85.7052 23.24V17.96H99.5852V23.24H96.0652V21H89.2452V23.24H85.7052ZM107.438 21V18.98L107.178 18.48V14.76C107.178 14.16 106.992 13.7 106.618 13.38C106.258 13.0467 105.678 12.88 104.878 12.88C104.358 12.88 103.832 12.9667 103.298 13.14C102.765 13.3 102.312 13.5267 101.938 13.82L100.658 11.24C101.272 10.84 102.005 10.5333 102.858 10.32C103.725 10.0933 104.585 9.98 105.438 9.98C107.198 9.98 108.558 10.3867 109.518 11.2C110.492 12 110.978 13.26 110.978 14.98V21H107.438ZM104.238 21.18C103.372 21.18 102.638 21.0333 102.038 20.74C101.438 20.4467 100.978 20.0467 100.658 19.54C100.352 19.0333 100.198 18.4667 100.198 17.84C100.198 17.1733 100.365 16.6 100.698 16.12C101.045 15.6267 101.572 15.2533 102.278 15C102.985 14.7333 103.898 14.6 105.018 14.6H107.578V16.58H105.538C104.925 16.58 104.492 16.68 104.238 16.88C103.998 17.08 103.878 17.3467 103.878 17.68C103.878 18.0133 104.005 18.28 104.258 18.48C104.512 18.68 104.858 18.78 105.298 18.78C105.712 18.78 106.085 18.68 106.418 18.48C106.765 18.2667 107.018 17.9467 107.178 17.52L107.698 18.92C107.498 19.6667 107.105 20.2333 106.518 20.62C105.945 20.9933 105.185 21.18 104.238 21.18ZM119.884 21.18C118.964 21.18 118.178 20.98 117.524 20.58C116.871 20.1667 116.371 19.5533 116.024 18.74C115.691 17.9133 115.524 16.86 115.524 15.58C115.524 14.2867 115.684 13.2333 116.004 12.42C116.324 11.5933 116.804 10.98 117.444 10.58C118.098 10.18 118.911 9.98 119.884 9.98C120.871 9.98 121.764 10.2133 122.564 10.68C123.378 11.1333 124.018 11.78 124.484 12.62C124.964 13.4467 125.204 14.4333 125.204 15.58C125.204 16.7267 124.964 17.72 124.484 18.56C124.018 19.4 123.378 20.0467 122.564 20.5C121.764 20.9533 120.871 21.18 119.884 21.18ZM113.064 24.88V10.16H116.684V12L116.664 15.58L116.864 19.18V24.88H113.064ZM119.084 18.16C119.511 18.16 119.891 18.06 120.224 17.86C120.571 17.66 120.844 17.3667 121.044 16.98C121.258 16.5933 121.364 16.1267 121.364 15.58C121.364 15.0333 121.258 14.5667 121.044 14.18C120.844 13.7933 120.571 13.5 120.224 13.3C119.891 13.1 119.511 13 119.084 13C118.658 13 118.271 13.1 117.924 13.3C117.591 13.5 117.318 13.7933 117.104 14.18C116.904 14.5667 116.804 15.0333 116.804 15.58C116.804 16.1267 116.904 16.5933 117.104 16.98C117.318 17.3667 117.591 17.66 117.924 17.86C118.271 18.06 118.658 18.16 119.084 18.16ZM126.829 21V10.16H130.609V14.18H134.509V10.16H138.309V21H134.509V17.2H130.609V21H126.829ZM140.672 21V10.16H144.472V21H140.672ZM142.572 8.96C141.879 8.96 141.319 8.76667 140.892 8.38C140.466 7.99333 140.252 7.51333 140.252 6.94C140.252 6.36667 140.466 5.88667 140.892 5.5C141.319 5.11333 141.879 4.92 142.572 4.92C143.266 4.92 143.826 5.10667 144.252 5.48C144.679 5.84 144.892 6.30667 144.892 6.88C144.892 7.48 144.679 7.98 144.252 8.38C143.839 8.76667 143.279 8.96 142.572 8.96ZM152.279 21.18C151.079 21.18 150.006 20.94 149.059 20.46C148.126 19.98 147.393 19.32 146.859 18.48C146.326 17.6267 146.059 16.6533 146.059 15.56C146.059 14.4667 146.326 13.5 146.859 12.66C147.393 11.82 148.126 11.1667 149.059 10.7C150.006 10.22 151.079 9.98 152.279 9.98C153.506 9.98 154.566 10.24 155.459 10.76C156.353 11.28 156.986 12.0133 157.359 12.96L154.419 14.46C154.166 13.9533 153.853 13.5867 153.479 13.36C153.106 13.12 152.699 13 152.259 13C151.819 13 151.419 13.1 151.059 13.3C150.699 13.5 150.413 13.7933 150.199 14.18C149.999 14.5533 149.899 15.0133 149.899 15.56C149.899 16.12 149.999 16.5933 150.199 16.98C150.413 17.3667 150.699 17.66 151.059 17.86C151.419 18.06 151.819 18.16 152.259 18.16C152.699 18.16 153.106 18.0467 153.479 17.82C153.853 17.58 154.166 17.2067 154.419 16.7L157.359 18.2C156.986 19.1467 156.353 19.88 155.459 20.4C154.566 20.92 153.506 21.18 152.279 21.18ZM161.208 21V12.34L162.028 13.18H157.708V10.16H168.468V13.18H164.148L164.988 12.34V21H161.208ZM176.1 13.52C177.54 13.5333 178.64 13.8533 179.4 14.48C180.16 15.1067 180.54 16 180.54 17.16C180.54 18.36 180.1 19.3067 179.22 20C178.353 20.68 177.153 21.0133 175.62 21H169.74V10.16H173.52V13.52H176.1ZM175.24 18.4C175.693 18.4 176.047 18.2933 176.3 18.08C176.553 17.8667 176.68 17.54 176.68 17.1C176.68 16.6467 176.553 16.3267 176.3 16.14C176.06 15.9533 175.707 15.8533 175.24 15.84H173.52V18.38L175.24 18.4Z" fill="#F9D549"/>
<path d="M194.162 21.28C192.096 21.28 190.482 20.7133 189.322 19.58C188.162 18.4467 187.582 16.84 187.582 14.76V7H191.542V14.64C191.542 15.84 191.776 16.7 192.242 17.22C192.722 17.74 193.376 18 194.202 18C195.029 18 195.676 17.74 196.142 17.22C196.609 16.7 196.842 15.84 196.842 14.64V7H200.742V14.76C200.742 16.84 200.162 18.4467 199.002 19.58C197.842 20.7133 196.229 21.28 194.162 21.28ZM201.252 21L207.432 7H211.332L217.532 21H213.412L208.572 8.94H210.132L205.292 21H201.252ZM204.632 18.28L205.652 15.36H212.492L213.512 18.28H204.632Z" fill="#2A75E6"/>
<path d="M25.0527 5.49059e-06C23.3746 -0.00185285 21.7297 0.468054 20.3059 1.3561C18.882 2.24415 17.7365 3.51458 17 5.02241C16.2635 3.51458 15.118 2.24415 13.6941 1.3561C12.2703 0.468054 10.6254 -0.00185285 8.94735 5.49059e-06C4.00583 5.49059e-06 0 3.98952 0 8.9113C0 20.496 17 28.5161 17 28.5161C17 28.5161 34 20.496 34 8.9113C34 3.98952 29.9942 5.49059e-06 25.0527 5.49059e-06Z" fill="#2A75E6"/>
<path d="M1.20117 14.2581C5.07683 22.8911 17 28.5161 17 28.5161C17 28.5161 28.9232 22.8911 32.7988 14.2581H1.20117Z" fill="#F9D549"/>
</svg>
