<svg width="16" height="15" viewBox="0 0 16 15" fill="none" xmlns="http://www.w3.org/2000/svg">
<path d="M3 0.5H13C14.108 0.5 15 1.392 15 2.5V12.5C15 13.608 14.108 14.5 13 14.5H3C1.892 14.5 1 13.608 1 12.5V2.5C1 1.392 1.892 0.5 3 0.5Z" stroke="black" stroke-linecap="round" stroke-linejoin="round"/>
<path d="M4 3.5H5" stroke="black" stroke-linecap="round" stroke-linejoin="round"/>
<path d="M6 4.5C5.73478 4.5 5.48043 4.39464 5.29289 4.20711C5.10536 4.01957 5 3.76522 5 3.5C5 3.23478 5.10536 2.98043 5.29289 2.79289C5.48043 2.60536 5.73478 2.5 6 2.5C6.13132 2.5 6.26136 2.52587 6.38268 2.57612C6.50401 2.62638 6.61425 2.70003 6.70711 2.79289C6.79997 2.88575 6.87362 2.99599 6.92388 3.11732C6.97413 3.23864 7 3.36868 7 3.5C7 3.63132 6.97413 3.76136 6.92388 3.88268C6.87362 4.00401 6.79997 4.11425 6.70711 4.20711C6.61425 4.29997 6.50401 4.37362 6.38268 4.42388C6.26136 4.47413 6.13132 4.5 6 4.5Z" stroke="black" stroke-linecap="round" stroke-linejoin="round"/>
<path d="M7 3.50002L12 3.5" stroke="black" stroke-linecap="round" stroke-linejoin="round"/>
<path d="M12 7.5H11" stroke="black" stroke-linecap="round" stroke-linejoin="round"/>
<path d="M10 8.5C10.2652 8.5 10.5196 8.39464 10.7071 8.20711C10.8946 8.01957 11 7.76522 11 7.5C11 7.23478 10.8946 6.98043 10.7071 6.79289C10.5196 6.60536 10.2652 6.5 10 6.5C9.73478 6.5 9.48043 6.60536 9.29289 6.79289C9.10536 6.98043 9 7.23478 9 7.5C9 7.76522 9.10536 8.01957 9.29289 8.20711C9.48043 8.39464 9.73478 8.5 10 8.5Z" stroke="black" stroke-linecap="round" stroke-linejoin="round"/>
<path d="M9 7.50002L4 7.5" stroke="black" stroke-linecap="round" stroke-linejoin="round"/>
<path d="M4 11.5H5" stroke="black" stroke-linecap="round" stroke-linejoin="round"/>
<path d="M6 12.5C5.73478 12.5 5.48043 12.3946 5.29289 12.2071C5.10536 12.0196 5 11.7652 5 11.5C5 11.2348 5.10536 10.9804 5.29289 10.7929C5.48043 10.6054 5.73478 10.5 6 10.5C6.13132 10.5 6.26136 10.5259 6.38268 10.5761C6.50401 10.6264 6.61425 10.7 6.70711 10.7929C6.79997 10.8858 6.87362 10.996 6.92388 11.1173C6.97413 11.2386 7 11.3687 7 11.5C7 11.6313 6.97413 11.7614 6.92388 11.8827C6.87362 12.004 6.79997 12.1142 6.70711 12.2071C6.61425 12.3 6.50401 12.3736 6.38268 12.4239C6.26136 12.4741 6.13132 12.5 6 12.5Z" stroke="black" stroke-linecap="round" stroke-linejoin="round"/>
<path d="M7 11.5L12 11.5" stroke="black" stroke-linecap="round" stroke-linejoin="round"/>
</svg>
