<svg width="30.000000" height="24.000000" viewBox="0 0 30 24" fill="none" xmlns="http://www.w3.org/2000/svg" xmlns:xlink="http://www.w3.org/1999/xlink">
	<desc>
			Created with Pixso.
	</desc>
	<defs/>
	<rect id="Icontyl Plus/Dark/Bold/Done Square" width="24.000000" height="24.000000" transform="translate(6.000000 0.000000)" fill="#FFFFFF" fill-opacity="0"/>
	<g opacity="0.000000">
		<rect id="Rectangle 290" width="24.000000" height="24.000000" fill="#4CAF50" fill-opacity="1.000000"/>
		<rect id="Rectangle 8" x="3.050781" y="3.049805" rx="1.000000" width="17.900000" height="17.900000" stroke="#000000" stroke-opacity="0.250000" stroke-width="0.100000"/>
		<rect id="Rectangle 9" x="2.050781" y="4.049805" rx="1.000000" width="19.900000" height="15.900000" stroke="#000000" stroke-opacity="0.250000" stroke-width="0.100000"/>
		<rect id="Rectangle 10" x="4.050781" y="2.049805" rx="1.000000" width="15.900000" height="19.900000" stroke="#000000" stroke-opacity="0.250000" stroke-width="0.100000"/>
		<circle id="Ellipse 3" cx="12.000000" cy="12.000000" r="9.950000" stroke="#000000" stroke-opacity="0.250000" stroke-width="0.100000"/>
		<circle id="Ellipse 4" cx="12.000000" cy="12.000000" r="4.950000" stroke="#000000" stroke-opacity="0.250000" stroke-width="0.100000"/>
		<path id="Rectangle 11" d="M7.9 23.89L0.09 23.89L0.09 16.1L7.9 16.1L7.9 23.89ZM8.09 16.1L8.09 23.89L11.9 23.89L11.9 16.1L8.09 16.1ZM11.9 15.89L8.09 15.89L8.09 12.1L11.9 12.1L11.9 15.89ZM12.09 16.1L12.09 23.89L15.9 23.89L15.9 16.1L12.09 16.1ZM15.9 15.89L12.09 15.89L12.09 12.1L15.9 12.1L15.9 15.89ZM16.09 16.1L16.09 23.89L23.9 23.89L23.9 16.1L16.09 16.1ZM23.9 15.89L16.09 15.89L16.09 12.1L23.9 12.1L23.9 15.89ZM23.9 11.89L16.09 11.89L16.09 8.1L23.9 8.1L23.9 11.89ZM23.9 7.89L16.09 7.89L16.09 0.1L23.9 0.1L23.9 7.89ZM24 0.1L24 24L0 24L0 0L24 0L24 0.1ZM15.9 0.1L12.09 0.1L12.09 7.89L15.9 7.89L15.9 0.1ZM15.9 8.1L12.09 8.1L12.09 11.89L15.9 11.89L15.9 8.1ZM11.9 11.89L11.9 8.1L8.09 8.1L8.09 11.89L11.9 11.89ZM7.9 7.89L0.09 7.89L0.09 0.1L7.9 0.1L7.9 7.89ZM7.9 8.1L0.09 8.1L0.09 11.89L7.9 11.89L7.9 8.1ZM7.9 12.1L0.09 12.1L0.09 15.89L7.9 15.89L7.9 12.1ZM8.09 7.89L11.9 7.89L11.9 0.1L8.09 0.1L8.09 7.89Z" fill="#000000" fill-opacity="0.250000" fill-rule="evenodd"/>
	</g>
	<path id="Subtract" d="M8 2L16 2C19.3145 2 22 4.68652 22 8L22 16C22 19.3135 19.3145 22 16 22L8 22C4.68555 22 2 19.3135 2 16L2 8C2 4.68652 4.68555 2 8 2ZM16.5605 9.49805L11.9746 14.6572Q11.8379 14.811 11.6738 14.9263Q11.5312 15.0269 11.3691 15.0977Q11.209 15.1685 11.041 15.2051Q10.8574 15.2446 10.666 15.2446Q10.4746 15.2446 10.293 15.2051Q10.125 15.1685 9.96289 15.0977Q9.80078 15.0269 9.6582 14.9263Q9.49609 14.811 9.35938 14.6572L7.43945 12.498C7.16016 12.1846 7.1875 11.7183 7.50195 11.4395C7.81641 11.1606 8.28125 11.188 8.56055 11.502L10.4805 13.6611Q10.5176 13.7026 10.5645 13.7236Q10.6113 13.7446 10.666 13.7446Q10.7227 13.7446 10.7695 13.7236Q10.8164 13.7026 10.8535 13.6611L15.4395 8.50195C15.7188 8.18799 16.1836 8.16064 16.498 8.43945C16.8125 8.71826 16.8398 9.18457 16.5605 9.49805Z" clip-rule="evenodd" fill="#4CAF50" fill-opacity="1.000000" fill-rule="evenodd"/>
</svg>
