<svg width="27" height="21" viewBox="0 0 27 21" fill="none" xmlns="http://www.w3.org/2000/svg">
<path d="M2.07645 0.209406C1.65396 -0.126915 1.04053 -0.0489871 0.707412 0.377566C0.374293 0.804119 0.451479 1.42344 0.873972 1.75976L24.9235 20.7906C25.346 21.1269 25.9595 21.049 26.2926 20.6224C26.6257 20.1959 26.5485 19.5766 26.126 19.2402L21.8524 15.8606C23.4611 14.1954 24.5498 12.3293 25.0982 11.0045C25.2323 10.6805 25.2323 10.3195 25.0982 9.99552C24.4929 8.53129 23.2214 6.39853 21.3202 4.61849C19.4108 2.82204 16.7824 1.3127 13.5 1.3127C10.7294 1.3127 8.42196 2.39139 6.62231 3.8064L2.07645 0.209406ZM9.56351 6.13193C10.5994 5.17629 11.9847 4.59388 13.5 4.59388C16.7296 4.59388 19.3499 7.23933 19.3499 10.5C19.3499 11.5213 19.094 12.481 18.643 13.3177L17.0749 12.0791C17.4162 11.2875 17.5056 10.3811 17.2699 9.48284C16.819 7.78072 15.3281 6.63641 13.6706 6.56669C13.435 6.55849 13.2969 6.81688 13.37 7.04656C13.4553 7.30905 13.5041 7.58796 13.5041 7.87916C13.5041 8.29751 13.4066 8.69125 13.2359 9.03988L9.56757 6.13603L9.56351 6.13193ZM15.6531 15.9919C14.9868 16.2585 14.2597 16.4061 13.5 16.4061C10.2704 16.4061 7.6501 13.7607 7.6501 10.5C7.6501 10.217 7.67041 9.9422 7.70698 9.6715L3.87611 6.62411C2.94987 7.84225 2.2877 9.05628 1.90177 9.99552C1.76771 10.3195 1.76771 10.6805 1.90177 11.0045C2.50707 12.4687 3.77861 14.6015 5.67982 16.3815C7.58917 18.178 10.2176 19.6873 13.5 19.6873C15.4418 19.6873 17.1521 19.1582 18.6268 18.3543L15.6531 15.9919Z" fill="black" fill-opacity="0.6"/>
</svg>
