<svg width="26" height="17" viewBox="0 0 26 17" fill="none" xmlns="http://www.w3.org/2000/svg">
<path fill-rule="evenodd" clip-rule="evenodd" d="M0.603293 9.37835C1.98437 11.5311 6.1166 16.8959 13 16.8959C19.8834 16.8959 24.0156 11.5311 25.3967 9.37835C25.7444 8.83639 25.7444 8.16365 25.3967 7.62169C24.0156 5.46893 19.8834 0.104187 13 0.104187C6.1166 0.104187 1.98437 5.46893 0.603294 7.62169C0.255608 8.16365 0.255608 8.83639 0.603293 9.37835ZM9.87497 8.50002C9.87497 6.77413 11.2741 5.37502 13 5.37502C14.7259 5.37502 16.125 6.77413 16.125 8.50002C16.125 10.2259 14.7259 11.625 13 11.625C11.2741 11.625 9.87497 10.2259 9.87497 8.50002ZM13 3.87502C10.4457 3.87502 8.37497 5.9457 8.37497 8.50002C8.37497 11.0543 10.4457 13.125 13 13.125C15.5543 13.125 17.625 11.0543 17.625 8.50002C17.625 5.9457 15.5543 3.87502 13 3.87502Z" fill="black" fill-opacity="0.6"/>
</svg>
