<svg width="24.000000" height="24.000000" viewBox="0 0 24 24" fill="none" xmlns="http://www.w3.org/2000/svg" xmlns:xlink="http://www.w3.org/1999/xlink">
	<desc>
			Created with Pixso.
	</desc>
	<defs/>
	<rect id="Icontyl Plus/Dark/Bold/Cleare Square" width="24.000000" height="24.000000" fill="#FFFFFF" fill-opacity="0"/>
	<g opacity="0.000000">
		<rect id="Rectangle 290" width="24.000000" height="24.000000" fill="#E91212" fill-opacity="1.000000"/>
		<rect id="Rectangle 8" x="3.050781" y="3.049805" rx="1.000000" width="17.900000" height="17.900000" stroke="#000000" stroke-opacity="0.250000" stroke-width="0.100000"/>
		<rect id="Rectangle 9" x="2.050781" y="4.049805" rx="1.000000" width="19.900000" height="15.900000" stroke="#000000" stroke-opacity="0.250000" stroke-width="0.100000"/>
		<rect id="Rectangle 10" x="4.050781" y="2.049805" rx="1.000000" width="15.900000" height="19.900000" stroke="#000000" stroke-opacity="0.250000" stroke-width="0.100000"/>
		<circle id="Ellipse 3" cx="12.000000" cy="12.000000" r="9.950000" stroke="#000000" stroke-opacity="0.250000" stroke-width="0.100000"/>
		<circle id="Ellipse 4" cx="12.000000" cy="12.000000" r="4.950000" stroke="#000000" stroke-opacity="0.250000" stroke-width="0.100000"/>
		<path id="Rectangle 11" d="M7.9 23.89L0.09 23.89L0.09 16.1L7.9 16.1L7.9 23.89ZM8.09 16.1L8.09 23.89L11.9 23.89L11.9 16.1L8.09 16.1ZM11.9 15.89L8.09 15.89L8.09 12.1L11.9 12.1L11.9 15.89ZM12.09 16.1L12.09 23.89L15.9 23.89L15.9 16.1L12.09 16.1ZM15.9 15.89L12.09 15.89L12.09 12.1L15.9 12.1L15.9 15.89ZM16.09 16.1L16.09 23.89L23.9 23.89L23.9 16.1L16.09 16.1ZM23.9 15.89L16.09 15.89L16.09 12.1L23.9 12.1L23.9 15.89ZM23.9 11.89L16.09 11.89L16.09 8.1L23.9 8.1L23.9 11.89ZM23.9 7.89L16.09 7.89L16.09 0.1L23.9 0.1L23.9 7.89ZM24 0.1L24 24L0 24L0 0L24 0L24 0.1ZM15.9 0.1L12.09 0.1L12.09 7.89L15.9 7.89L15.9 0.1ZM15.9 8.1L12.09 8.1L12.09 11.89L15.9 11.89L15.9 8.1ZM11.9 11.89L11.9 8.1L8.09 8.1L8.09 11.89L11.9 11.89ZM7.9 7.89L0.09 7.89L0.09 0.1L7.9 0.1L7.9 7.89ZM7.9 8.1L0.09 8.1L0.09 11.89L7.9 11.89L7.9 8.1ZM7.9 12.1L0.09 12.1L0.09 15.89L7.9 15.89L7.9 12.1ZM8.09 7.89L11.9 7.89L11.9 0.1L8.09 0.1L8.09 7.89Z" fill="#000000" fill-opacity="0.250000" fill-rule="evenodd"/>
	</g>
	<path id="Subtract" d="M16 2L8 2C4.68555 2 2 4.68652 2 8L2 16C2 19.3135 4.68555 22 8 22L16 22C19.3145 22 22 19.3135 22 16L22 8C22 4.68652 19.3145 2 16 2ZM13.0605 12L15.5312 9.53027C15.8281 9.2334 15.8281 8.7666 15.5312 8.46973C15.2324 8.17236 14.7676 8.17236 14.4688 8.46973L12 10.9395L9.53125 8.46973C9.23242 8.17285 8.76562 8.17285 8.46875 8.46973C8.17188 8.7666 8.17188 9.2334 8.46875 9.53027L10.9395 12L8.46875 14.4697C8.17188 14.7666 8.17188 15.2334 8.46875 15.5303C8.76562 15.8271 9.23242 15.8271 9.53125 15.5303L12 13.0605L14.4688 15.5303C14.7676 15.8276 15.2324 15.8276 15.5312 15.5303C15.8281 15.2334 15.8281 14.7666 15.5312 14.4697L13.0605 12Z" clip-rule="evenodd" fill="#E91212" fill-opacity="1.000000" fill-rule="evenodd"/>
</svg>
